<svg width="128" height="154" viewBox="0 0 128 154" fill="none" xmlns="http://www.w3.org/2000/svg">
<path d="M9 152.5L11 153L14 153.5L16.5 154H19L22 153.5L25 153L28.5 152L31.5 151L35 149.5L38 148L41 146.5L44 144.5L47 142.5L49.5 140.5L52 138.5L55 136L57 134L59.5 131.5L62.5 128.5L64.5 126L66.5 123.5L68.5 120.5L70.5 117.5L72.5 114L75 109L77 105L78.5 101.5L81 95.5L82 92.5L83 88.5L84 84.5L85 81L86 76L87 71.5L88 66L88.5 63.2365L89.5 57V54V49L89 45.5L88.5 42L87.5 39.5L86.5 37L85 35L83 32.5L80.5 30.5L78 29L74.5 27.5L72 27H70.5L68.5 27.5L66.5 28L63 28.5L59 29H55L52.5 28.5L50 28L47 27L44 26.5H41L38 27L34.5 28L32 29.5L29.5 31.5L27 34L24.5 37.5L23 41.5L22.5 46.5V51L23 55L23.5 59L24.5 64L25.5 67.5L27 72.5L28.5 77L29.5 80L30.5 84L31 89L31.5 94V100V105L30.5 109L29.5 112.5L28.5 116L27 119L25 122.5L22.5 126L19.5 129.5L16.5 132.5L13 136L10 139L8 141.5L7 143.5L6.5 145L6 147.5L6.5 149.5L7 151L9 152.5Z" fill="#227C3C"/>
<path d="M55.5 19L56 22L57.5 22.5L58 21.5L59 19.5L60 18L61.5 16L63.5 14L65 13L66.5 12L68 11L69.5 10.5H71H73.5L76.5 11L79 11.5L81.5 12.5L84.5 14L87 15L90.5 16.5L93 17.5L96 18.5L99 19.5L101.5 20L104 20.5L106.5 21H109L112.5 20.5L115 19.5L117.5 18L120 16L122 14L124 11.5L125.5 9L126.5 6.5L127.5 4L128 2V0H127.5L126.5 0.5L125.5 2L124.5 4L122.5 6L120.5 8L118.5 9.5L116 11L113 11.5H110L106.5 11L102.5 10L99 9L96 8L93 7L90 6L87.5 5L85 4L82.5 3L79.5 2L76.5 1.5H73.5L70.5 2L68 3L65.5 4.5L63 6L60.5 8L59 9.5L57.5 11.5L56.5 13.5L55.5 16V19Z" fill="#227C3C"/>
<path d="M52.6207 37V44.6732C51.3787 44.8692 50.1271 45.2485 48.8621 45.7613V40.76H45.1034V47.6126C44.7046 47.8382 44.3043 48.0716 43.9019 48.3129C43.0566 48.8205 42.2034 49.3657 41.3448 49.9356V44.52H37.5862V52.5547C36.3355 53.4594 35.0811 54.3938 33.8276 55.3328V52.04H30.069V58.1418C28.8 59.0837 27.5436 59.9983 26.3103 60.8659V55.8H22.5517V63.3701C22.3074 63.5221 22.0608 63.6784 21.82 63.8231C20.7751 64.4506 19.7607 64.9988 18.7931 65.4592V63.32H15.0345V66.8387C14.3556 66.9961 13.7248 67.08 13.1552 67.08H11.2759V59.56H0V131H11.2759V70.84H13.1552C13.7796 70.84 14.4059 70.7859 15.0345 70.6868V131H18.7931V69.5985C20.0316 69.0961 21.2832 68.4658 22.5517 67.7474V131H26.3103V65.4244C27.554 64.5991 28.8091 63.7174 30.069 62.8056V131H33.8276V97.16H37.5862V131H41.3448V54.4941C42.6279 53.5922 43.8842 52.7488 45.1034 51.9899V85.88H48.8621V49.901C50.2229 49.2538 51.4903 48.7836 52.6207 48.5216V85.88H56.3793V48.5213C57.5097 48.7836 58.7771 49.2538 60.1379 49.9008V85.88H63.8966V51.9899C65.1158 52.749 66.3721 53.5922 67.6552 54.4941V131H71.4138V97.16H75.1724V131H78.931V62.8053C80.1909 63.7171 81.446 64.5991 82.6897 65.4244V131H86.4483V67.7474C87.7168 68.4656 88.9684 69.0963 90.2069 69.5985V131H93.9655V70.6868C94.5941 70.7859 95.2204 70.84 95.8448 70.84H97.7241V131H109V59.56H97.7241V67.08H95.8448C95.2752 67.08 94.6444 66.9961 93.9655 66.8387V63.32H90.2069V65.459C89.2391 64.9984 88.2249 64.4503 87.18 63.8234C86.939 63.6784 86.6926 63.5221 86.4483 63.3698V55.8H82.6897V60.8659C81.4559 59.9987 80.2 59.0837 78.931 58.1418V52.04H75.1724V55.3328C73.9189 54.3938 72.6645 53.4599 71.4138 52.5544V44.52H67.6552V49.9356C66.7968 49.3659 65.9434 48.8203 65.0981 48.3131C64.6957 48.0718 64.2954 47.8384 63.8966 47.6128V40.76H60.1379V45.7615C58.8729 45.2485 57.6213 44.8692 56.3793 44.6735V37H52.6207ZM5.63793 44.52C2.50183 44.52 0 47.0227 0 50.16C0 53.2973 2.50183 55.8 5.63793 55.8C8.77403 55.8 11.2759 53.2973 11.2759 50.16C11.2759 47.0227 8.77403 44.52 5.63793 44.52ZM103.362 44.52C100.226 44.52 97.7241 47.0227 97.7241 50.16C97.7241 53.2973 100.226 55.8 103.362 55.8C106.498 55.8 109 53.2973 109 50.16C109 47.0227 106.498 44.52 103.362 44.52ZM37.5862 57.2182V93.4H33.8276V60.0272C34.2034 59.7457 34.58 59.4655 34.9552 59.184C35.8361 58.5236 36.7133 57.8661 37.5862 57.2182ZM71.4138 57.2182C72.2867 57.8661 73.1639 58.5236 74.0448 59.184C74.42 59.466 74.7966 59.7457 75.1724 60.0272V93.4H71.4138V57.2182ZM45.1034 89.64V97.16H63.8966V89.64H45.1034ZM45.1034 100.92V131H48.8621V100.92H45.1034ZM52.6207 100.92V131H56.3793V100.92H52.6207ZM60.1379 100.92V131H63.8966V100.92H60.1379Z" fill="black"/>
</svg>
