<svg width="713" height="178" viewBox="0 0 713 178" fill="none" xmlns="http://www.w3.org/2000/svg">
<path d="M9 152.5L11 153L14 153.5L16.5 154H19L22 153.5L25 153L28.5 152L31.5 151L35 149.5L38 148L41 146.5L44 144.5L47 142.5L49.5 140.5L52 138.5L55 136L57 134L59.5 131.5L62.5 128.5L64.5 126L66.5 123.5L68.5 120.5L70.5 117.5L72.5 114L75 109L77 105L78.5 101.5L81 95.5L82 92.5L83 88.5L84 84.5L85 81L86 76L87 71.5L88 66L88.5 63.2365L89.5 57V54V49L89 45.5L88.5 42L87.5 39.5L86.5 37L85 35L83 32.5L80.5 30.5L78 29L74.5 27.5L72 27H70.5L68.5 27.5L66.5 28L63 28.5L59 29H55L52.5 28.5L50 28L47 27L44 26.5H41L38 27L34.5 28L32 29.5L29.5 31.5L27 34L24.5 37.5L23 41.5L22.5 46.5V51L23 55L23.5 59L24.5 64L25.5 67.5L27 72.5L28.5 77L29.5 80L30.5 84L31 89L31.5 94V100V105L30.5 109L29.5 112.5L28.5 116L27 119L25 122.5L22.5 126L19.5 129.5L16.5 132.5L13 136L10 139L8 141.5L7 143.5L6.5 145L6 147.5L6.5 149.5L7 151L9 152.5Z" fill="#227C3C"/>
<path d="M55.5 19L56 22L57.5 22.5L58 21.5L59 19.5L60 18L61.5 16L63.5 14L65 13L66.5 12L68 11L69.5 10.5H71H73.5L76.5 11L79 11.5L81.5 12.5L84.5 14L87 15L90.5 16.5L93 17.5L96 18.5L99 19.5L101.5 20L104 20.5L106.5 21H109L112.5 20.5L115 19.5L117.5 18L120 16L122 14L124 11.5L125.5 9L126.5 6.5L127.5 4L128 2V0H127.5L126.5 0.5L125.5 2L124.5 4L122.5 6L120.5 8L118.5 9.5L116 11L113 11.5H110L106.5 11L102.5 10L99 9L96 8L93 7L90 6L87.5 5L85 4L82.5 3L79.5 2L76.5 1.5H73.5L70.5 2L68 3L65.5 4.5L63 6L60.5 8L59 9.5L57.5 11.5L56.5 13.5L55.5 16V19Z" fill="#227C3C"/>
<path d="M52.6207 37V44.6732C51.3787 44.8692 50.1271 45.2485 48.8621 45.7613V40.76H45.1034V47.6126C44.7046 47.8382 44.3043 48.0716 43.9019 48.3129C43.0566 48.8205 42.2034 49.3657 41.3448 49.9356V44.52H37.5862V52.5547C36.3355 53.4594 35.0811 54.3938 33.8276 55.3328V52.04H30.069V58.1418C28.8 59.0837 27.5436 59.9983 26.3103 60.8659V55.8H22.5517V63.3701C22.3074 63.5221 22.0608 63.6784 21.82 63.8231C20.7751 64.4506 19.7607 64.9988 18.7931 65.4592V63.32H15.0345V66.8387C14.3556 66.9961 13.7248 67.08 13.1552 67.08H11.2759V59.56H0V131H11.2759V70.84H13.1552C13.7796 70.84 14.4059 70.786 15.0345 70.6868V131H18.7931V69.5985C20.0316 69.0961 21.2832 68.4658 22.5517 67.7474V131H26.3103V65.4244C27.554 64.5991 28.8091 63.7174 30.069 62.8056V131H33.8276V97.16H37.5862V131H41.3448V54.4941C42.6279 53.5922 43.8842 52.7488 45.1034 51.9899V85.88H48.8621V49.901C50.2229 49.2538 51.4903 48.7836 52.6207 48.5216V85.88H56.3793V48.5213C57.5097 48.7836 58.7771 49.2538 60.1379 49.9008V85.88H63.8966V51.9899C65.1158 52.749 66.3721 53.5922 67.6552 54.4941V131H71.4138V97.16H75.1724V131H78.931V62.8053C80.1909 63.7171 81.446 64.5991 82.6897 65.4244V131H86.4483V67.7474C87.7168 68.4656 88.9684 69.0963 90.2069 69.5985V131H93.9655V70.6868C94.5941 70.786 95.2204 70.84 95.8448 70.84H97.7241V131H109V59.56H97.7241V67.08H95.8448C95.2752 67.08 94.6444 66.9961 93.9655 66.8387V63.32H90.2069V65.459C89.2391 64.9984 88.2249 64.4503 87.18 63.8234C86.939 63.6784 86.6926 63.5221 86.4483 63.3698V55.8H82.6897V60.8659C81.4559 59.9987 80.2 59.0837 78.931 58.1418V52.04H75.1724V55.3328C73.9189 54.3938 72.6645 53.4599 71.4138 52.5544V44.52H67.6552V49.9356C66.7968 49.3659 65.9434 48.8203 65.0981 48.3131C64.6957 48.0718 64.2954 47.8384 63.8966 47.6128V40.76H60.1379V45.7615C58.8729 45.2485 57.6213 44.8692 56.3793 44.6735V37H52.6207ZM5.63793 44.52C2.50183 44.52 0 47.0227 0 50.16C0 53.2973 2.50183 55.8 5.63793 55.8C8.77403 55.8 11.2759 53.2973 11.2759 50.16C11.2759 47.0227 8.77403 44.52 5.63793 44.52ZM103.362 44.52C100.226 44.52 97.7241 47.0227 97.7241 50.16C97.7241 53.2973 100.226 55.8 103.362 55.8C106.498 55.8 109 53.2973 109 50.16C109 47.0227 106.498 44.52 103.362 44.52ZM37.5862 57.2182V93.4H33.8276V60.0272C34.2034 59.7457 34.58 59.4655 34.9552 59.184C35.8361 58.5236 36.7133 57.8661 37.5862 57.2182ZM71.4138 57.2182C72.2867 57.8661 73.1639 58.5236 74.0448 59.184C74.42 59.466 74.7966 59.7457 75.1724 60.0272V93.4H71.4138V57.2182ZM45.1034 89.64V97.16H63.8966V89.64H45.1034ZM45.1034 100.92V131H48.8621V100.92H45.1034ZM52.6207 100.92V131H56.3793V100.92H52.6207ZM60.1379 100.92V131H63.8966V100.92H60.1379Z" fill="black"/>
<path d="M173.923 107.384C171.907 107.384 170.035 106.968 168.307 106.136C166.579 105.272 165.186 104.072 164.13 102.536L166.915 99.272C168.771 101.928 171.107 103.256 173.923 103.256C175.811 103.256 177.235 102.68 178.195 101.528C179.187 100.376 179.683 98.68 179.683 96.44V77.576H167.539V73.4H184.435V96.2C184.435 99.912 183.539 102.712 181.747 104.6C179.987 106.456 177.379 107.384 173.923 107.384ZM202.804 81.32C206.324 81.32 209.012 82.184 210.868 83.912C212.756 85.64 213.7 88.216 213.7 91.64V107H209.332V103.64C208.564 104.824 207.46 105.736 206.02 106.376C204.612 106.984 202.932 107.288 200.98 107.288C198.132 107.288 195.844 106.6 194.116 105.224C192.42 103.848 191.572 102.04 191.572 99.8C191.572 97.56 192.388 95.768 194.02 94.424C195.652 93.048 198.244 92.36 201.796 92.36H209.092V91.448C209.092 89.464 208.516 87.944 207.364 86.888C206.212 85.832 204.516 85.304 202.276 85.304C200.772 85.304 199.3 85.56 197.86 86.072C196.42 86.552 195.204 87.208 194.212 88.04L192.292 84.584C193.604 83.528 195.172 82.728 196.996 82.184C198.82 81.608 200.756 81.32 202.804 81.32ZM201.748 103.736C203.508 103.736 205.028 103.352 206.308 102.584C207.588 101.784 208.516 100.664 209.092 99.224V95.672H201.988C198.084 95.672 196.132 96.984 196.132 99.608C196.132 100.888 196.628 101.896 197.62 102.632C198.612 103.368 199.988 103.736 201.748 103.736ZM222.227 71.384H226.835V107H222.227V71.384ZM244.898 81.32C248.418 81.32 251.106 82.184 252.962 83.912C254.85 85.64 255.794 88.216 255.794 91.64V107H251.426V103.64C250.658 104.824 249.554 105.736 248.114 106.376C246.706 106.984 245.026 107.288 243.074 107.288C240.226 107.288 237.938 106.6 236.21 105.224C234.514 103.848 233.666 102.04 233.666 99.8C233.666 97.56 234.482 95.768 236.114 94.424C237.746 93.048 240.338 92.36 243.89 92.36H251.186V91.448C251.186 89.464 250.61 87.944 249.458 86.888C248.306 85.832 246.61 85.304 244.37 85.304C242.866 85.304 241.394 85.56 239.954 86.072C238.514 86.552 237.298 87.208 236.306 88.04L234.386 84.584C235.698 83.528 237.266 82.728 239.09 82.184C240.914 81.608 242.85 81.32 244.898 81.32ZM243.842 103.736C245.602 103.736 247.122 103.352 248.402 102.584C249.682 101.784 250.61 100.664 251.186 99.224V95.672H244.082C240.178 95.672 238.226 96.984 238.226 99.608C238.226 100.888 238.722 101.896 239.714 102.632C240.706 103.368 242.082 103.736 243.842 103.736ZM277.809 81.32C280.273 81.32 282.481 81.864 284.433 82.952C286.385 84.04 287.905 85.56 288.993 87.512C290.113 89.464 290.673 91.72 290.673 94.28C290.673 96.84 290.113 99.112 288.993 101.096C287.905 103.048 286.385 104.568 284.433 105.656C282.481 106.744 280.273 107.288 277.809 107.288C275.985 107.288 274.305 106.936 272.769 106.232C271.265 105.528 269.985 104.504 268.929 103.16V116.312H264.321V81.56H268.737V85.592C269.761 84.184 271.057 83.128 272.625 82.424C274.193 81.688 275.921 81.32 277.809 81.32ZM277.425 103.256C279.057 103.256 280.513 102.888 281.793 102.152C283.105 101.384 284.129 100.328 284.865 98.984C285.633 97.608 286.017 96.04 286.017 94.28C286.017 92.52 285.633 90.968 284.865 89.624C284.129 88.248 283.105 87.192 281.793 86.456C280.513 85.72 279.057 85.352 277.425 85.352C275.825 85.352 274.369 85.736 273.057 86.504C271.777 87.24 270.753 88.28 269.985 89.624C269.249 90.968 268.881 92.52 268.881 94.28C268.881 96.04 269.249 97.608 269.985 98.984C270.721 100.328 271.745 101.384 273.057 102.152C274.369 102.888 275.825 103.256 277.425 103.256ZM320.032 94.424C320.032 94.776 320 95.24 319.936 95.816H299.296C299.584 98.056 300.56 99.864 302.224 101.24C303.92 102.584 306.016 103.256 308.512 103.256C311.552 103.256 314 102.232 315.856 100.184L318.4 103.16C317.248 104.504 315.808 105.528 314.08 106.232C312.384 106.936 310.48 107.288 308.368 107.288C305.68 107.288 303.296 106.744 301.216 105.656C299.136 104.536 297.52 102.984 296.368 101C295.248 99.016 294.688 96.776 294.688 94.28C294.688 91.816 295.232 89.592 296.32 87.608C297.44 85.624 298.96 84.088 300.88 83C302.832 81.88 305.024 81.32 307.456 81.32C309.888 81.32 312.048 81.88 313.936 83C315.856 84.088 317.344 85.624 318.4 87.608C319.488 89.592 320.032 91.864 320.032 94.424ZM307.456 85.208C305.248 85.208 303.392 85.88 301.888 87.224C300.416 88.568 299.552 90.328 299.296 92.504H315.616C315.36 90.36 314.48 88.616 312.976 87.272C311.504 85.896 309.664 85.208 307.456 85.208ZM340.015 81.32C343.247 81.32 345.807 82.264 347.695 84.152C349.615 86.008 350.575 88.744 350.575 92.36V107H345.967V92.888C345.967 90.424 345.375 88.568 344.191 87.32C343.007 86.072 341.311 85.448 339.103 85.448C336.607 85.448 334.639 86.184 333.199 87.656C331.759 89.096 331.039 91.176 331.039 93.896V107H326.431V81.56H330.847V85.4C331.775 84.088 333.023 83.08 334.591 82.376C336.191 81.672 337.999 81.32 340.015 81.32ZM341.887 77.72C341.119 77.72 340.447 77.56 339.871 77.24C339.327 76.92 338.639 76.44 337.807 75.8C337.327 75.352 336.911 75.032 336.559 74.84C336.207 74.616 335.855 74.504 335.503 74.504C334.799 74.504 334.223 74.776 333.775 75.32C333.327 75.832 333.087 76.552 333.055 77.48H330.463C330.527 75.688 330.975 74.264 331.807 73.208C332.671 72.152 333.791 71.624 335.167 71.624C335.935 71.624 336.607 71.8 337.183 72.152C337.791 72.472 338.479 72.952 339.247 73.592C339.791 74.04 340.223 74.376 340.543 74.6C340.863 74.792 341.199 74.888 341.551 74.888C342.255 74.888 342.831 74.632 343.279 74.12C343.727 73.608 343.967 72.904 343.999 72.008H346.591C346.527 73.736 346.063 75.128 345.199 76.184C344.367 77.208 343.263 77.72 341.887 77.72ZM370.139 107.288C367.611 107.288 365.339 106.728 363.323 105.608C361.307 104.488 359.723 102.952 358.571 101C357.451 99.016 356.891 96.776 356.891 94.28C356.891 91.784 357.451 89.56 358.571 87.608C359.723 85.624 361.307 84.088 363.323 83C365.339 81.88 367.611 81.32 370.139 81.32C372.667 81.32 374.923 81.88 376.907 83C378.923 84.088 380.491 85.624 381.611 87.608C382.763 89.56 383.339 91.784 383.339 94.28C383.339 96.776 382.763 99.016 381.611 101C380.491 102.952 378.923 104.488 376.907 105.608C374.923 106.728 372.667 107.288 370.139 107.288ZM370.139 103.256C371.771 103.256 373.227 102.888 374.507 102.152C375.819 101.384 376.843 100.328 377.579 98.984C378.315 97.608 378.683 96.04 378.683 94.28C378.683 92.52 378.315 90.968 377.579 89.624C376.843 88.248 375.819 87.192 374.507 86.456C373.227 85.72 371.771 85.352 370.139 85.352C368.507 85.352 367.035 85.72 365.723 86.456C364.443 87.192 363.419 88.248 362.651 89.624C361.915 90.968 361.547 92.52 361.547 94.28C361.547 96.04 361.915 97.608 362.651 98.984C363.419 100.328 364.443 101.384 365.723 102.152C367.035 102.888 368.507 103.256 370.139 103.256ZM424.682 98.6H406.826L403.13 107H398.186L413.402 73.4H418.154L433.418 107H428.378L424.682 98.6ZM423.002 94.76L415.754 78.296L408.506 94.76H423.002ZM451.535 73.4C455.887 73.4 459.311 74.44 461.807 76.52C464.303 78.6 465.551 81.464 465.551 85.112C465.551 88.76 464.303 91.624 461.807 93.704C459.311 95.784 455.887 96.824 451.535 96.824H443.231V107H438.431V73.4H451.535ZM451.391 92.648C454.431 92.648 456.751 92.008 458.351 90.728C459.951 89.416 460.751 87.544 460.751 85.112C460.751 82.68 459.951 80.824 458.351 79.544C456.751 78.232 454.431 77.576 451.391 77.576H443.231V92.648H451.391ZM472.603 73.4H477.403V107H472.603V73.4ZM523.633 90.008H528.241V103.112C526.577 104.488 524.641 105.544 522.432 106.28C520.225 107.016 517.921 107.384 515.521 107.384C512.129 107.384 509.073 106.648 506.353 105.176C503.633 103.672 501.489 101.624 499.921 99.032C498.385 96.408 497.617 93.464 497.617 90.2C497.617 86.936 498.385 83.992 499.921 81.368C501.489 78.744 503.633 76.696 506.353 75.224C509.105 73.752 512.193 73.016 515.617 73.016C518.305 73.016 520.737 73.464 522.913 74.36C525.121 75.224 526.993 76.504 528.529 78.2L525.553 81.176C522.865 78.584 519.617 77.288 515.809 77.288C513.249 77.288 510.945 77.848 508.897 78.968C506.881 80.056 505.297 81.592 504.145 83.576C502.993 85.528 502.417 87.736 502.417 90.2C502.417 92.632 502.993 94.84 504.145 96.824C505.297 98.776 506.881 100.312 508.897 101.432C510.945 102.552 513.233 103.112 515.761 103.112C518.769 103.112 521.393 102.392 523.633 100.952V90.008ZM546.023 81.32C549.543 81.32 552.231 82.184 554.087 83.912C555.975 85.64 556.919 88.216 556.919 91.64V107H552.551V103.64C551.783 104.824 550.679 105.736 549.239 106.376C547.831 106.984 546.151 107.288 544.199 107.288C541.351 107.288 539.063 106.6 537.335 105.224C535.639 103.848 534.791 102.04 534.791 99.8C534.791 97.56 535.607 95.768 537.239 94.424C538.871 93.048 541.463 92.36 545.015 92.36H552.311V91.448C552.311 89.464 551.735 87.944 550.583 86.888C549.431 85.832 547.735 85.304 545.495 85.304C543.991 85.304 542.519 85.56 541.079 86.072C539.639 86.552 538.423 87.208 537.431 88.04L535.511 84.584C536.823 83.528 538.391 82.728 540.215 82.184C542.039 81.608 543.975 81.32 546.023 81.32ZM544.967 103.736C546.727 103.736 548.247 103.352 549.527 102.584C550.807 101.784 551.735 100.664 552.311 99.224V95.672H545.207C541.303 95.672 539.351 96.984 539.351 99.608C539.351 100.888 539.847 101.896 540.839 102.632C541.831 103.368 543.207 103.736 544.967 103.736ZM579.75 105.512C579.078 106.088 578.246 106.536 577.254 106.856C576.262 107.144 575.238 107.288 574.182 107.288C571.622 107.288 569.638 106.6 568.23 105.224C566.822 103.848 566.118 101.88 566.118 99.32V85.352H561.798V81.56H566.118V75.992H570.726V81.56H578.022V85.352H570.726V99.128C570.726 100.504 571.062 101.56 571.734 102.296C572.438 103.032 573.43 103.4 574.71 103.4C576.118 103.4 577.318 103 578.31 102.2L579.75 105.512ZM607.469 94.424C607.469 94.776 607.437 95.24 607.373 95.816H586.733C587.021 98.056 587.997 99.864 589.661 101.24C591.357 102.584 593.453 103.256 595.949 103.256C598.989 103.256 601.437 102.232 603.293 100.184L605.837 103.16C604.685 104.504 603.245 105.528 601.517 106.232C599.821 106.936 597.917 107.288 595.805 107.288C593.117 107.288 590.733 106.744 588.653 105.656C586.573 104.536 584.957 102.984 583.805 101C582.685 99.016 582.125 96.776 582.125 94.28C582.125 91.816 582.669 89.592 583.757 87.608C584.877 85.624 586.397 84.088 588.317 83C590.269 81.88 592.461 81.32 594.893 81.32C597.325 81.32 599.485 81.88 601.373 83C603.293 84.088 604.781 85.624 605.837 87.608C606.925 89.592 607.469 91.864 607.469 94.424ZM594.893 85.208C592.685 85.208 590.829 85.88 589.325 87.224C587.853 88.568 586.989 90.328 586.733 92.504H603.053C602.797 90.36 601.917 88.616 600.413 87.272C598.941 85.896 597.101 85.208 594.893 85.208ZM651.895 81.56L642.391 107H637.975L630.631 87.704L623.191 107H618.775L609.319 81.56H613.687L621.079 101.816L628.759 81.56H632.647L640.183 101.912L647.767 81.56H651.895ZM665.038 81.32C668.558 81.32 671.246 82.184 673.102 83.912C674.99 85.64 675.934 88.216 675.934 91.64V107H671.566V103.64C670.798 104.824 669.694 105.736 668.254 106.376C666.846 106.984 665.166 107.288 663.214 107.288C660.366 107.288 658.078 106.6 656.35 105.224C654.654 103.848 653.806 102.04 653.806 99.8C653.806 97.56 654.622 95.768 656.254 94.424C657.886 93.048 660.478 92.36 664.03 92.36H671.326V91.448C671.326 89.464 670.75 87.944 669.598 86.888C668.446 85.832 666.75 85.304 664.51 85.304C663.006 85.304 661.534 85.56 660.094 86.072C658.654 86.552 657.438 87.208 656.446 88.04L654.526 84.584C655.838 83.528 657.406 82.728 659.23 82.184C661.054 81.608 662.99 81.32 665.038 81.32ZM663.982 103.736C665.742 103.736 667.262 103.352 668.542 102.584C669.822 101.784 670.75 100.664 671.326 99.224V95.672H664.222C660.318 95.672 658.366 96.984 658.366 99.608C658.366 100.888 658.862 101.896 659.854 102.632C660.846 103.368 662.222 103.736 663.982 103.736ZM706.505 81.56L694.169 109.544C693.081 112.136 691.801 113.96 690.329 115.016C688.889 116.072 687.145 116.6 685.097 116.6C683.849 116.6 682.633 116.392 681.449 115.976C680.297 115.592 679.337 115.016 678.569 114.248L680.537 110.792C681.849 112.04 683.369 112.664 685.097 112.664C686.217 112.664 687.145 112.36 687.881 111.752C688.649 111.176 689.337 110.168 689.945 108.728L690.761 106.952L679.529 81.56H684.329L693.209 101.912L701.993 81.56H706.505Z" fill="black"/>
</svg>
