<svg width="128" height="154" viewBox="0 0 128 154" fill="none" xmlns="http://www.w3.org/2000/svg">
<path d="M3 152.5L5 153L8 153.5L10.5 154H13L16 153.5L19 153L22.5 152L25.5 151L29 149.5L32 148L35 146.5L38 144.5L41 142.5L43.5 140.5L46 138.5L49 136L51 134L53.5 131.5L56.5 128.5L58.5 126L60.5 123.5L62.5 120.5L64.5 117.5L66.5 114L69 109L71 105L72.5 101.5L75 95.5L76 92.5L77 88.5L78 84.5L79 81L80 76L81 71.5L82 66L82.5 63.2365L83.5 57V54V49L83 45.5L82.5 42L81.5 39.5L80.5 37L79 35L77 32.5L74.5 30.5L72 29L68.5 27.5L66 27H64.5L62.5 27.5L60.5 28L57 28.5L53 29H49L46.5 28.5L44 28L41 27L38 26.5H35L32 27L28.5 28L26 29.5L23.5 31.5L21 34L18.5 37.5L17 41.5L16.5 46.5V51L17 55L17.5 59L18.5 64L19.5 67.5L21 72.5L22.5 77L23.5 80L24.5 84L25 89L25.5 94V100V105L24.5 109L23.5 112.5L22.5 116L21 119L19 122.5L16.5 126L13.5 129.5L10.5 132.5L7 136L4 139L2 141.5L1 143.5L0.5 145L0 147.5L0.5 149.5L1 151L3 152.5Z" fill="#227C3C"/>
<path d="M49.5 19L50 22L51.5 22.5L52 21.5L53 19.5L54 18L55.5 16L57.5 14L59 13L60.5 12L62 11L63.5 10.5H65H67.5L70.5 11L73 11.5L75.5 12.5L78.5 14L81 15L84.5 16.5L87 17.5L90 18.5L93 19.5L95.5 20L98 20.5L100.5 21H103L106.5 20.5L109 19.5L111.5 18L114 16L116 14L118 11.5L119.5 9L120.5 6.5L121.5 4L122 2V0H121.5L120.5 0.5L119.5 2L118.5 4L116.5 6L114.5 8L112.5 9.5L110 11L107 11.5H104L100.5 11L96.5 10L93 9L90 8L87 7L84 6L81.5 5L79 4L76.5 3L73.5 2L70.5 1.5H67.5L64.5 2L62 3L59.5 4.5L57 6L54.5 8L53 9.5L51.5 11.5L50.5 13.5L49.5 16V19Z" fill="#227C3C"/>
<path d="M122.188 124.938H97.9385L89.7192 133.157C87.5305 135.346 84.6061 136.562 81.5 136.562C78.3939 136.562 75.4768 135.353 73.2808 133.157L65.0615 124.938H40.8125C37.6029 124.938 35 127.54 35 130.75V148.188C35 151.397 37.6029 154 40.8125 154H122.188C125.397 154 128 151.397 128 148.188V130.75C128 127.535 125.403 124.938 122.188 124.938ZM113.469 143.828C111.071 143.828 109.109 141.866 109.109 139.469C109.109 137.071 111.071 135.109 113.469 135.109C115.866 135.109 117.828 137.071 117.828 139.469C117.828 141.866 115.866 143.828 113.469 143.828ZM77.3949 129.043C78.5211 130.187 80.0105 130.75 81.5 130.75C82.9895 130.75 84.4753 130.182 85.6087 129.047L108.859 105.797C111.127 103.527 111.127 99.8484 108.859 97.5779C106.588 95.3074 102.908 95.3074 100.639 97.5779L87.3125 110.915V66.8125C87.3125 63.6029 84.7096 61 81.5 61C78.285 61 75.6875 63.6029 75.6875 66.8125V110.915L62.3551 97.5824C60.0864 95.3119 56.4063 95.3119 54.1358 97.5824C51.8671 99.8529 51.8671 103.531 54.1358 105.802L77.3949 129.043Z" fill="black"/>
</svg>
