<svg width="122" height="161" viewBox="0 0 122 161" fill="none" xmlns="http://www.w3.org/2000/svg">
<path d="M3 152.5L5 153L8 153.5L10.5 154H13L16 153.5L19 153L22.5 152L25.5 151L29 149.5L32 148L35 146.5L38 144.5L41 142.5L43.5 140.5L46 138.5L49 136L51 134L53.5 131.5L56.5 128.5L58.5 126L60.5 123.5L62.5 120.5L64.5 117.5L66.5 114L69 109L71 105L72.5 101.5L75 95.5L76 92.5L77 88.5L78 84.5L79 81L80 76L81 71.5L82 66L82.5 63.2365L83.5 57V54V49L83 45.5L82.5 42L81.5 39.5L80.5 37L79 35L77 32.5L74.5 30.5L72 29L68.5 27.5L66 27H64.5L62.5 27.5L60.5 28L57 28.5L53 29H49L46.5 28.5L44 28L41 27L38 26.5H35L32 27L28.5 28L26 29.5L23.5 31.5L21 34L18.5 37.5L17 41.5L16.5 46.5V51L17 55L17.5 59L18.5 64L19.5 67.5L21 72.5L22.5 77L23.5 80L24.5 84L25 89L25.5 94V100V105L24.5 109L23.5 112.5L22.5 116L21 119L19 122.5L16.5 126L13.5 129.5L10.5 132.5L7 136L4 139L2 141.5L1 143.5L0.5 145L0 147.5L0.5 149.5L1 151L3 152.5Z" fill="#227C3C"/>
<path d="M49.5 19L50 22L51.5 22.5L52 21.5L53 19.5L54 18L55.5 16L57.5 14L59 13L60.5 12L62 11L63.5 10.5H65H67.5L70.5 11L73 11.5L75.5 12.5L78.5 14L81 15L84.5 16.5L87 17.5L90 18.5L93 19.5L95.5 20L98 20.5L100.5 21H103L106.5 20.5L109 19.5L111.5 18L114 16L116 14L118 11.5L119.5 9L120.5 6.5L121.5 4L122 2V0H121.5L120.5 0.5L119.5 2L118.5 4L116.5 6L114.5 8L112.5 9.5L110 11L107 11.5H104L100.5 11L96.5 10L93 9L90 8L87 7L84 6L81.5 5L79 4L76.5 3L73.5 2L70.5 1.5H67.5L64.5 2L62 3L59.5 4.5L57 6L54.5 8L53 9.5L51.5 11.5L50.5 13.5L49.5 16V19Z" fill="#227C3C"/>
<path d="M111.125 72.875H46.5C43.2504 72.875 40.625 75.5059 40.625 78.75V140.438C40.625 142.053 39.3105 143.375 37.6875 143.375C36.0645 143.375 34.75 142.053 34.75 140.438V84.625H28.875C25.6309 84.625 23 87.2504 23 90.5V143.375C23 149.865 28.26 155.125 34.75 155.125H105.25C111.74 155.125 117 149.865 117 143.375V78.75C117 75.5059 114.375 72.875 111.125 72.875ZM72.9375 143.375H55.3125C53.6969 143.375 52.375 142.053 52.375 140.438C52.375 138.822 53.6969 137.5 55.3125 137.5H72.9375C74.5597 137.5 75.875 138.815 75.875 140.438C75.875 142.053 74.5531 143.375 72.9375 143.375ZM72.9375 125.75H55.3125C53.6969 125.75 52.375 124.428 52.375 122.812C52.375 121.197 53.6969 119.875 55.3125 119.875H72.9375C74.5531 119.875 75.875 121.197 75.875 122.812C75.875 124.428 74.5531 125.75 72.9375 125.75ZM102.312 143.375H84.6875C83.0653 143.375 81.75 142.06 81.75 140.438C81.75 138.815 83.0653 137.5 84.6875 137.5H102.312C103.935 137.5 105.25 138.815 105.25 140.438C105.25 142.053 103.928 143.375 102.312 143.375ZM102.312 125.75H84.6875C83.0719 125.75 81.75 124.428 81.75 122.812C81.75 121.197 83.0719 119.875 84.6875 119.875H102.312C103.928 119.875 105.25 121.197 105.25 122.812C105.25 124.428 103.928 125.75 102.312 125.75ZM105.25 105.188C105.25 106.803 103.928 108.125 102.312 108.125H55.3125C53.6969 108.125 52.375 106.803 52.375 105.188V87.5625C52.375 85.9469 53.6969 84.625 55.3125 84.625H102.312C103.928 84.625 105.25 85.9469 105.25 87.5625V105.188Z" fill="black"/>
</svg>
